<?xml version="1.0" encoding="UTF-8"?>
<svg width="1024px" height="1024px" viewBox="0 0 1024 1024" version="1.1" xmlns="http://www.w3.org/2000/svg" xmlns:xlink="http://www.w3.org/1999/xlink">
    <!-- Generator: Sketch 59.1 (86144) - https://sketch.com -->
    <title>PerfectPitchAppIcon</title>
    <desc>Created with Sketch.</desc>
    <defs>
        <path d="M288.437085,-1.16532035e-14 L735.562915,1.16532035e-14 C835.858773,-6.7708468e-15 872.228475,10.4428813 908.895142,30.0524292 C945.561808,49.6619771 974.338023,78.4381917 993.947571,115.104858 C1013.55712,151.771525 1024,188.141227 1024,288.437085 L1024,735.562915 C1024,835.858773 1013.55712,872.228475 993.947571,908.895142 C974.338023,945.561808 945.561808,974.338023 908.895142,993.947571 C872.228475,1013.55712 835.858773,1024 735.562915,1024 L288.437085,1024 C188.141227,1024 151.771525,1013.55712 115.104858,993.947571 C78.4381917,974.338023 49.6619771,945.561808 30.0524292,908.895142 C10.4428813,872.228475 4.51389787e-15,835.858773 -7.76880231e-15,735.562915 L7.76880231e-15,288.437085 C-4.51389787e-15,188.141227 10.4428813,151.771525 30.0524292,115.104858 C49.6619771,78.4381917 78.4381917,49.6619771 115.104858,30.0524292 C151.771525,10.4428813 188.141227,6.7708468e-15 288.437085,-1.16532035e-14 Z" id="path-1"></path>
        <radialGradient cx="50%" cy="50%" fx="50%" fy="50%" r="82.3557903%" id="radialGradient-3">
            <stop stop-color="#F5F5FA" offset="0%"></stop>
            <stop stop-color="#EDEDF2" offset="100%"></stop>
        </radialGradient>
    </defs>
    <g id="Page-1" stroke="none" stroke-width="1" fill="none" fill-rule="evenodd">
        <g id="PerfectPitchAppIcon">
            <g id="Sub"></g>
            <mask id="mask-2" fill="white">
                <use xlink:href="#path-1"></use>
            </mask>
            <use id="Background" fill="#FFFFFF" xlink:href="#path-1"></use>
            <circle id="GrayCircle" fill="url(#radialGradient-3)" mask="url(#mask-2)" cx="513.5" cy="512.5" r="442.5"></circle>
            <g id="Waves" mask="url(#mask-2)" stroke-width="50">
                <g transform="translate(-1112.000000, 217.128377)">
                    <path d="M252,286.871623 C883.970161,286.871623 1148.30349,286.871623 1187,286.871623 C1227,286.871623 1278,287.871623 1304,296.871623 C1330,305.871623 1353,331.871623 1363,348.871623 C1373,365.871623 1383.63689,385.022163 1394,400.871623 C1411,426.871623 1427.10445,435.310784 1436,437.871623 C1502,456.871623 1533.34012,392.829095 1579,252.871623 C1625,111.871623 1641.98379,83.6740111 1667,49.8716225 C1692.01621,16.0692339 1719.34954,-0.550014002 1749,0.0138787967 C1775,-0.128377484 1800.04638,15.7526995 1824,53.0138788 C1847.95362,90.2750581 1877.95362,156.560973 1914,251.871623 C1936,305.204956 1964,333.871623 2000,333.871623 C2036,333.871623 2055.53594,295.863087 2067,280.871623 C2093,246.871623 2107,242.871623 2157,242.871623 C2207,242.871623 2585.87672,242.871623 3064,242.871623" id="BlueWave" stroke="#46A9F5"></path>
                    <path d="M126,349.871623 C757.970161,349.871623 967.303495,365.871623 1006,365.871623 C1046,365.871623 1120,374.871623 1137,378.871623 C1154,382.871623 1186,392.871623 1212,410.871623 C1238,428.871623 1256,448.871623 1268,463.871623 C1288.74639,489.804607 1301.10445,498.310784 1310,500.871623 C1376,519.871623 1407.34012,455.829095 1453,315.871623 C1499,174.871623 1515.98379,146.674011 1541,112.871623 C1566.01621,79.0692339 1593.34954,62.449986 1623,63.0138788 C1649,62.8716225 1674.04638,78.7526995 1698,116.013879 C1721.95362,153.275058 1751.95362,219.560973 1788,314.871623 C1810,368.204956 1838,396.871623 1874,396.871623 C1910,396.871623 1929.53594,358.863087 1941,343.871623 C1967,309.871623 1981,305.871623 2031,305.871623 C2081,305.871623 2459.87672,305.871623 2938,305.871623" id="GreenWave" stroke="#A9DE4E"></path>
                    <path d="M0,412.871623 C631.970161,412.871623 896.303495,412.871623 935,412.871623 C975,412.871623 1026,413.871623 1052,422.871623 C1078,431.871623 1101,457.871623 1111,474.871623 C1121,491.871623 1131.63689,511.022163 1142,526.871623 C1159,552.871623 1175.10445,561.310784 1184,563.871623 C1250,582.871623 1281.34012,518.829095 1327,378.871623 C1373,237.871623 1389.98379,209.674011 1415,175.871623 C1440.01621,142.069234 1467.34954,125.449986 1497,126.013879 C1523,125.871623 1548.04638,141.7527 1572,179.013879 C1595.95362,216.275058 1625.95362,282.560973 1662,377.871623 C1684,431.204956 1707,462.871623 1740,465.871623 C1756,466.871623 1773,462.871623 1787,446.871623 C1801,430.871623 1811.39358,415.879648 1817,408.871623 C1841,378.871623 1855,368.871623 1905,368.871623 C1955,368.871623 2333.87672,368.871623 2812,368.871623" id="PinkWave" stroke="#FA556B"></path>
                </g>
            </g>
        </g>
    </g>
</svg>